<?xml version="1.0" encoding="UTF-8"?>
<svg xmlns="http://www.w3.org/2000/svg" width="168" height="53" viewBox="0 0 168 53" fill="none">
  <path d="M38.7993 12.1C38.7993 12.1 35.5993 15.7 38.9993 19.3C38.9993 19.3 42.1993 16.1 38.7993 12.1Z" fill="#DDA863"></path>
  <path d="M51.1998 11.3C51.1998 11.3 46.3998 12 46.5998 16.9C46.5998 16.9 51.0998 16.5 51.1998 11.3Z" fill="#DDA863"></path>
  <path d="M44.9 26.3C44.9 26.3 40.1 27 40.3 31.9C40.3 31.9 44.8 31.5 44.9 26.3Z" fill="#DDA863"></path>
  <path d="M56.3 30C56.3 30 51.9 28 49.5 32.3C49.5 32.4 53.5 34.4 56.3 30Z" fill="#DDA863"></path>
  <path d="M47.0996 40C47.0996 40 44.5996 35.9 40.0996 38.1C40.0996 38.1 42.2996 42.1 47.0996 40Z" fill="#DDA863"></path>
  <path d="M35.2003 29.8C35.1003 29.8 35.0003 29.8 34.8003 29.7C34.3003 29.5 34.2003 29 34.4003 28.5C39.5003 17.4 51.2003 18.3 51.3003 18.3C51.8003 18.3 52.1003 18.8 52.1003 19.3C52.1003 19.8 51.6003 20.1 51.1003 20.1C50.7003 20.1 40.5003 19.3 36.0003 29.3C35.8003 29.6 35.5003 29.8 35.2003 29.8Z" fill="#DDA863"></path>
  <path d="M40.1002 23.4C39.8002 23.4 39.5002 23.2 39.3002 22.9C39.1002 22.5 39.2002 21.9 39.6002 21.7C43.7002 19.3 43.4002 12.3 43.4002 12.3C43.4002 11.8 43.7002 11.4 44.2002 11.4C44.7002 11.4 45.1002 11.7 45.1002 12.2C45.1002 12.5 45.5002 20.3 40.4002 23.3C40.4002 23.3 40.2002 23.4 40.1002 23.4Z" fill="#DDA863"></path>
  <path d="M34.8 39.7C34.6 39.7 34.3 39.6 34.1 39.4C33.8 39 33.8 38.5 34.1 38.1C42.1 30.6 50.8 35.4 50.9 35.5C51.3 35.7 51.5 36.3 51.2 36.7C51 37.1 50.4 37.3 50 37C49.7 36.8 42.3 32.8 35.3 39.4C35.3 39.7 35.1 39.7 34.8 39.7Z" fill="#DDA863"></path>
  <path d="M41.8998 35.8C41.3998 35.8 41.0998 35.5 40.9998 35C40.8998 34.5 41.2998 34.1 41.7998 34C46.4998 33.5 48.9998 26.9 48.9998 26.9C49.1998 26.4 49.6998 26.2 50.0998 26.4C50.5998 26.6 50.7998 27.1 50.5998 27.5C50.4998 27.8 47.7998 35.1 41.8998 35.8Z" fill="#DDA863"></path>
  <path d="M45.7998 52.4H34.6998C34.1998 52.4 33.7998 52 33.7998 51.5V5.60001C33.7998 5.10001 34.1998 4.70001 34.6998 4.70001C35.1998 4.70001 35.5998 5.10001 35.5998 5.60001V50.6H45.7998C46.2998 50.6 46.6998 51 46.6998 51.5C46.6998 52 46.2998 52.4 45.7998 52.4Z" fill="#DDA863"></path>
  <path d="M17.4999 12.1C17.4999 12.1 20.6999 15.7 17.2999 19.3C17.2999 19.3 14.1999 16.1 17.4999 12.1Z" fill="#DDA863"></path>
  <path d="M5.2002 11.3C5.2002 11.3 10.0002 12 9.8002 16.9C9.8002 16.9 5.3002 16.5 5.2002 11.3Z" fill="#DDA863"></path>
  <path d="M11.4004 26.3C11.4004 26.3 16.2004 27 16.0004 31.9C16.0004 31.9 11.5004 31.5 11.4004 26.3Z" fill="#DDA863"></path>
  <path d="M0 30C0 30 4.4 28 6.8 32.3C6.8 32.4 2.8 34.4 0 30Z" fill="#DDA863"></path>
  <path d="M9.2998 40C9.2998 40 11.7998 35.9 16.2998 38.1C16.1998 38.1 14.0998 42.1 9.2998 40Z" fill="#DDA863"></path>
  <path d="M21.1996 29.8C21.2996 29.8 21.3996 29.8 21.5996 29.7C22.0996 29.5 22.1996 29 21.9996 28.5C16.8996 17.4 5.19961 18.3 5.09961 18.3C4.59961 18.3 4.19961 18.8 4.29961 19.3C4.29961 19.8 4.79961 20.1 5.29961 20.1C5.79961 20.1 15.8996 19.3 20.3996 29.3C20.4996 29.6 20.7996 29.8 21.1996 29.8Z" fill="#DDA863"></path>
  <path d="M16.2993 23.4C16.5993 23.4 16.8993 23.2 17.0993 22.9C17.2993 22.5 17.1993 21.9 16.7993 21.7C12.6993 19.3 12.9993 12.3 12.9993 12.3C12.9993 11.8 12.5993 11.4 12.1993 11.4C11.6993 11.4 11.2993 11.7 11.2993 12.2C11.2993 12.5 10.8993 20.3 15.9993 23.3C15.8993 23.3 16.0993 23.4 16.2993 23.4Z" fill="#DDA863"></path>
  <path d="M21.4995 39.7C21.6995 39.7 21.9995 39.6 22.1995 39.4C22.4995 39 22.4995 38.5 22.1995 38.1C14.1995 30.6 5.49952 35.4 5.39952 35.5C4.99952 35.7 4.79952 36.3 5.09952 36.7C5.29952 37.1 5.89952 37.3 6.29952 37C6.59952 36.8 13.8995 32.8 20.9995 39.4C21.0995 39.7 21.2995 39.7 21.4995 39.7Z" fill="#DDA863"></path>
  <path d="M14.4993 35.8C14.9993 35.8 15.2993 35.5 15.3993 35C15.4993 34.5 15.0993 34.1 14.5993 34C9.8993 33.5 7.3993 26.9 7.3993 26.9C7.1993 26.4 6.6993 26.2 6.2993 26.4C5.7993 26.6 5.5993 27.1 5.7993 27.5C5.8993 27.8 8.6993 35.1 14.4993 35.8C14.3993 35.8 14.3993 35.8 14.4993 35.8Z" fill="#DDA863"></path>
  <path d="M10.5992 52.4H21.6992C22.1992 52.4 22.5992 52 22.5992 51.5V5.60001C22.5992 5.10001 22.1992 4.70001 21.6992 4.70001C21.1992 4.70001 20.7992 5.10001 20.7992 5.60001V50.6H10.5992C10.0992 50.6 9.69922 51 9.69922 51.5C9.69922 52 10.0992 52.4 10.5992 52.4Z" fill="#DDA863"></path>
  <path d="M25.9 52.4C25.4 52.4 25 52 25 51.5V0.900002C25 0.400002 25.4 0 25.9 0C26.4 0 26.8 0.400002 26.8 0.900002V51.6C26.8 52 26.4 52.4 25.9 52.4Z" fill="#DDA863"></path>
  <path d="M30.3004 52.4C29.8004 52.4 29.4004 52 29.4004 51.5V0.900002C29.4004 0.400002 29.8004 0 30.3004 0C30.8004 0 31.2004 0.400002 31.2004 0.900002V51.6C31.2004 52 30.8004 52.4 30.3004 52.4Z" fill="#DDA863"></path>
  <path d="M84.0004 38.7C83.9004 38.7 83.8004 38.6 83.8004 38.5C83.8004 38.3 84.0004 38.3 84.2004 38.3C84.9004 38.3 85.4004 37.2 85.4004 35.9V23.2H66.1004V35.9C66.1004 37.5 66.7004 38.3 67.5004 38.3C67.6004 38.3 67.7004 38.4 67.7004 38.5C67.7004 38.6 67.6004 38.7 67.5004 38.7H61.6004C61.5004 38.7 61.4004 38.6 61.4004 38.5C61.4004 38.3 61.6004 38.3 61.8004 38.3C62.5004 38.3 63.0004 37.2 63.0004 35.9V9.60005C63.0004 8.00005 62.4004 7.20005 61.7004 7.20005C61.6004 7.20005 61.5004 7.10005 61.5004 7.00005C61.5004 6.90005 61.6004 6.80005 61.7004 6.80005H67.6004C67.7004 6.80005 67.8004 6.90005 67.8004 7.00005C67.8004 7.10005 67.6004 7.20005 67.5004 7.20005C66.7004 7.20005 66.1004 8.00005 66.1004 9.60005V22.2H85.4004V9.60005C85.4004 8.00005 84.8004 7.20005 84.0004 7.20005C83.9004 7.20005 83.8004 7.10005 83.8004 7.00005C83.8004 6.90005 83.9004 6.80005 84.0004 6.80005H89.9004C90.0004 6.80005 90.1004 6.90005 90.1004 7.00005C90.1004 7.20005 89.9004 7.20005 89.7004 7.20005C89.0004 7.20005 88.5004 8.30005 88.5004 9.60005V35.9C88.5004 37.2 89.0004 38.3 89.7004 38.3C89.9004 38.3 90.1004 38.3 90.1004 38.5C90.1004 38.6 90.0004 38.7 89.9004 38.7H84.0004Z" fill="#385811"></path>
  <path d="M93.5008 38.7C93.4008 38.7 93.3008 38.6 93.3008 38.4C93.3008 38.3 93.4008 38.2 93.5008 38.2C94.3008 38.2 94.9008 37.5 94.9008 35.8V9.50004C94.9008 8.10004 94.3008 7.10004 93.7008 7.10004C93.4008 7.10004 93.3008 7.10004 93.3008 6.80004C93.3008 6.70004 93.4008 6.60004 93.5008 6.60004H113.901L114.601 10.5C114.601 10.7 114.501 10.7 114.401 10.7C114.301 10.7 114.201 10.6 114.201 10.5C114.201 8.80004 111.101 7.50004 108.201 7.50004H98.1008V22.2H108.001C109.301 22.2 110.401 21.6 110.401 20.9C110.401 20.7 110.401 20.5 110.601 20.5C110.701 20.5 110.801 20.6 110.801 20.7V24.4C110.801 24.5 110.701 24.6 110.601 24.6C110.401 24.6 110.301 24.6 110.301 24.4C110.301 23.6 109.501 23.1 107.901 23.1H98.0008V37.7H108.101C111.101 37.7 113.701 36.4 114.101 34.9C114.101 34.7 114.201 34.6 114.401 34.6C114.501 34.6 114.601 34.7 114.601 34.9L113.901 38.8L93.5008 38.7Z" fill="#385811"></path>
  <path d="M137.6 38.7C137.5 38.7 137.4 38.6 137.4 38.5C137.4 38.3 137.4 38.3 137.6 38.3H137.8C138.2 38.3 138.4 37.9 138.4 37.3C138.4 36.9 137.3 33.6 135.2 27.4H123.9L121.3 35.1C121 36.1 120.8 36.5 120.8 37.3V37.9C120.8 38.2 121 38.4 121.4 38.4C121.6 38.4 121.7 38.5 121.7 38.6C121.7 38.8 121.6 38.8 121.5 38.8H117.9C117.7 38.8 117.7 38.7 117.7 38.6C117.7 38.5 117.8 38.4 118 38.4C118.7 38.4 119.6 37.2 120 35.9L130.1 6.70004H131L141.1 35.9C141.6 37.2 142.4 38.4 143.2 38.4C143.4 38.4 143.5 38.5 143.5 38.6C143.5 38.7 143.4 38.8 143.3 38.8L137.6 38.7ZM129.4 11L124.1 26.3H134.8L129.4 11Z" fill="#385811"></path>
  <path d="M146.7 38.7C146.6 38.7 146.5 38.6 146.5 38.5C146.5 38.3 146.7 38.3 146.9 38.3C147.5 38.3 148.1 37.2 148.1 35.9V9.60005C148.1 8.00005 147.5 7.20005 146.7 7.20005C146.6 7.20005 146.5 7.10005 146.5 7.00005C146.5 6.90005 146.6 6.80005 146.7 6.80005H152.6C152.7 6.80005 152.8 6.90005 152.8 7.00005C152.8 7.20005 152.6 7.20005 152.4 7.20005C151.7 7.20005 151.2 8.30005 151.2 9.60005V37.8H161.3C164.4 37.8 167 36.5 167.3 34.8C167.3 34.7 167.4 34.6 167.5 34.6C167.6 34.6 167.7 34.7 167.7 34.8L167 38.7H146.7Z" fill="#385811"></path>
  <path d="M67.5006 47.8C67.3006 48.2 67.0006 48.5 66.6006 48.7C66.2006 48.9 65.6006 49 65.0006 49H63.7006V52H62.1006V44.1H64.9006C65.5006 44.1 66.0006 44.2 66.5006 44.4C67.0006 44.6 67.3006 44.9 67.5006 45.3C67.7006 45.7 67.8006 46.1 67.8006 46.6C67.8006 47 67.7006 47.4 67.5006 47.8ZM65.8006 47.4C66.0006 47.2 66.1006 46.9 66.1006 46.6C66.1006 45.8 65.7006 45.4 64.8006 45.4H63.5006V47.7H64.8006C65.3006 47.7 65.6006 47.6 65.8006 47.4Z" fill="#385811"></path>
  <path d="M79.901 50.5H76.701L76.201 52H74.501L77.301 44.1H79.101L81.901 52H80.201L79.901 50.5ZM79.501 49.2L78.401 45.9L77.201 49.2H79.501Z" fill="#385811"></path>
  <path d="M90.9008 50.8H93.5008V52.1H89.3008V44.2H90.9008V50.8Z" fill="#385811"></path>
  <path d="M102.3 45.4V47.4H105V48.7H102.3V50.8H105.3V52.1H100.7V44.2H105.3V45.5C105.3 45.4 102.3 45.4 102.3 45.4Z" fill="#385811"></path>
  <path d="M114.2 51.8C113.8 51.6 113.4 51.3 113.1 51C112.8 50.7 112.7 50.2 112.7 49.7H114.4C114.4 50 114.5 50.3 114.8 50.5C115.1 50.7 115.3 50.8 115.7 50.8C116.1 50.8 116.4 50.7 116.6 50.5C116.8 50.3 116.9 50.1 116.9 49.8C116.9 49.6 116.8 49.4 116.7 49.2C116.6 49 116.4 48.9 116.2 48.8C116 48.7 115.7 48.6 115.3 48.5C114.8 48.3 114.4 48.2 114.1 48.1C113.8 47.9 113.5 47.7 113.3 47.4C113.1 47.1 112.9 46.7 112.9 46.2C112.9 45.7 113 45.3 113.3 45C113.5 44.7 113.9 44.4 114.3 44.2C114.7 44 115.2 43.9 115.7 43.9C116.5 43.9 117.2 44.1 117.7 44.5C118.2 44.9 118.5 45.4 118.5 46.2H116.8C116.8 45.9 116.7 45.7 116.4 45.5C116.2 45.3 115.9 45.2 115.5 45.2C115.2 45.2 114.9 45.3 114.8 45.4C114.6 45.6 114.5 45.8 114.5 46.1C114.5 46.3 114.6 46.5 114.7 46.6C114.8 46.7 115 46.8 115.2 46.9C115.4 47 115.7 47.1 116.1 47.2C116.6 47.4 117 47.5 117.4 47.6C117.8 47.7 118 48 118.2 48.3C118.4 48.6 118.6 49 118.6 49.5C118.6 49.9 118.5 50.3 118.3 50.7C118.1 51.1 117.8 51.4 117.3 51.6C116.9 51.8 116.4 51.9 115.8 51.9C115.2 51.9 114.6 52 114.2 51.8Z" fill="#385811"></path>
  <path d="M131.401 44.1V45.4H129.301V52H127.701V45.4H125.601V44.1H131.401Z" fill="#385811"></path>
  <path d="M140.3 44.1V52H138.7V44.1H140.3Z" fill="#385811"></path>
  <path d="M154.801 52H153.201L149.601 46.6V52H148.001V44.1H149.601L153.201 49.5V44.1H154.801V52Z" fill="#385811"></path>
  <path d="M164.101 45.4V47.4H166.801V48.7H164.101V50.8H167.101V52.1H162.501V44.2H167.101V45.5C167.101 45.4 164.101 45.4 164.101 45.4Z" fill="#385811"></path>
</svg>
